<svg id="visual" viewBox="0 0 1920 7000" width="1920" height="7000" xmlns="http://www.w3.org/2000/svg" xmlns:xlink="http://www.w3.org/1999/xlink" version="1.1"><rect x="0" y="0" width="1920" height="7000" fill="#000000"></rect><path d="M1289 7000L1343.2 6927.2C1397.3 6854.3 1505.7 6708.7 1478.5 6562.8C1451.3 6417 1288.7 6271 1246 6125.2C1203.3 5979.3 1280.7 5833.7 1301.7 5687.8C1322.7 5542 1287.3 5396 1339.2 5250.2C1391 5104.3 1530 4958.7 1502.7 4812.8C1475.3 4667 1281.7 4521 1263.5 4375.2C1245.3 4229.3 1402.7 4083.7 1500.5 3937.8C1598.3 3792 1636.7 3646 1576.5 3500.2C1516.3 3354.3 1357.7 3208.7 1307.3 3062.8C1257 2917 1315 2771 1323.2 2625.2C1331.3 2479.3 1289.7 2333.7 1300.5 2187.8C1311.3 2042 1374.7 1896 1396.3 1750.2C1418 1604.3 1398 1458.7 1372.8 1312.8C1347.7 1167 1317.3 1021 1296.5 875.2C1275.7 729.3 1264.3 583.7 1224.3 437.8C1184.3 292 1115.7 146 1081.3 73L1047 0L1920 0L1920 73C1920 146 1920 292 1920 437.8C1920 583.7 1920 729.3 1920 875.2C1920 1021 1920 1167 1920 1312.8C1920 1458.7 1920 1604.3 1920 1750.2C1920 1896 1920 2042 1920 2187.8C1920 2333.7 1920 2479.3 1920 2625.2C1920 2771 1920 2917 1920 3062.8C1920 3208.7 1920 3354.3 1920 3500.2C1920 3646 1920 3792 1920 3937.8C1920 4083.7 1920 4229.3 1920 4375.2C1920 4521 1920 4667 1920 4812.8C1920 4958.7 1920 5104.3 1920 5250.2C1920 5396 1920 5542 1920 5687.8C1920 5833.7 1920 5979.3 1920 6125.2C1920 6271 1920 6417 1920 6562.8C1920 6708.7 1920 6854.3 1920 6927.2L1920 7000Z" fill="#8e0606"></path><path d="M1174 7000L1206.2 6927.2C1238.3 6854.3 1302.7 6708.7 1330.5 6562.8C1358.3 6417 1349.7 6271 1383.2 6125.2C1416.7 5979.3 1492.3 5833.7 1517.5 5687.8C1542.7 5542 1517.3 5396 1460.2 5250.2C1403 5104.3 1314 4958.7 1259.7 4812.8C1205.3 4667 1185.7 4521 1224.3 4375.2C1263 4229.3 1360 4083.7 1415.8 3937.8C1471.7 3792 1486.3 3646 1468.3 3500.2C1450.3 3354.3 1399.7 3208.7 1350.2 3062.8C1300.7 2917 1252.3 2771 1312.5 2625.2C1372.7 2479.3 1541.3 2333.7 1597.2 2187.8C1653 2042 1596 1896 1559.3 1750.2C1522.7 1604.3 1506.3 1458.7 1490.2 1312.8C1474 1167 1458 1021 1403.7 875.2C1349.3 729.3 1256.7 583.7 1251.2 437.8C1245.7 292 1327.3 146 1368.2 73L1409 0L1920 0L1920 73C1920 146 1920 292 1920 437.8C1920 583.7 1920 729.3 1920 875.2C1920 1021 1920 1167 1920 1312.8C1920 1458.7 1920 1604.3 1920 1750.2C1920 1896 1920 2042 1920 2187.8C1920 2333.7 1920 2479.3 1920 2625.2C1920 2771 1920 2917 1920 3062.8C1920 3208.7 1920 3354.3 1920 3500.2C1920 3646 1920 3792 1920 3937.8C1920 4083.7 1920 4229.3 1920 4375.2C1920 4521 1920 4667 1920 4812.8C1920 4958.7 1920 5104.3 1920 5250.2C1920 5396 1920 5542 1920 5687.8C1920 5833.7 1920 5979.3 1920 6125.2C1920 6271 1920 6417 1920 6562.8C1920 6708.7 1920 6854.3 1920 6927.2L1920 7000Z" fill="#9f0506"></path><path d="M1387 7000L1403.5 6927.2C1420 6854.3 1453 6708.7 1519 6562.8C1585 6417 1684 6271 1676 6125.2C1668 5979.3 1553 5833.7 1499 5687.8C1445 5542 1452 5396 1476.2 5250.2C1500.3 5104.3 1541.7 4958.7 1553.5 4812.8C1565.3 4667 1547.7 4521 1509 4375.2C1470.3 4229.3 1410.7 4083.7 1397.2 3937.8C1383.7 3792 1416.3 3646 1460.3 3500.2C1504.3 3354.3 1559.7 3208.7 1563.3 3062.8C1567 2917 1519 2771 1495.5 2625.2C1472 2479.3 1473 2333.7 1523.3 2187.8C1573.7 2042 1673.3 1896 1655.3 1750.2C1637.3 1604.3 1501.7 1458.7 1476.8 1312.8C1452 1167 1538 1021 1554.7 875.2C1571.3 729.3 1518.7 583.7 1533.3 437.8C1548 292 1630 146 1671 73L1712 0L1920 0L1920 73C1920 146 1920 292 1920 437.8C1920 583.7 1920 729.3 1920 875.2C1920 1021 1920 1167 1920 1312.8C1920 1458.7 1920 1604.3 1920 1750.2C1920 1896 1920 2042 1920 2187.8C1920 2333.7 1920 2479.3 1920 2625.2C1920 2771 1920 2917 1920 3062.8C1920 3208.7 1920 3354.3 1920 3500.2C1920 3646 1920 3792 1920 3937.8C1920 4083.7 1920 4229.3 1920 4375.2C1920 4521 1920 4667 1920 4812.8C1920 4958.7 1920 5104.3 1920 5250.2C1920 5396 1920 5542 1920 5687.8C1920 5833.7 1920 5979.3 1920 6125.2C1920 6271 1920 6417 1920 6562.8C1920 6708.7 1920 6854.3 1920 6927.2L1920 7000Z" fill="#b00305"></path><path d="M1580 7000L1577 6927.2C1574 6854.3 1568 6708.7 1598.8 6562.8C1629.7 6417 1697.3 6271 1734.5 6125.2C1771.7 5979.3 1778.3 5833.7 1789.8 5687.8C1801.3 5542 1817.7 5396 1828 5250.2C1838.3 5104.3 1842.7 4958.7 1813.7 4812.8C1784.7 4667 1722.3 4521 1685.3 4375.2C1648.3 4229.3 1636.7 4083.7 1637.5 3937.8C1638.3 3792 1651.7 3646 1688 3500.2C1724.3 3354.3 1783.7 3208.7 1769.5 3062.8C1755.3 2917 1667.7 2771 1624.3 2625.2C1581 2479.3 1582 2333.7 1587.8 2187.8C1593.7 2042 1604.3 1896 1585.8 1750.2C1567.3 1604.3 1519.7 1458.7 1533.3 1312.8C1547 1167 1622 1021 1640.3 875.2C1658.7 729.3 1620.3 583.7 1608.3 437.8C1596.3 292 1610.7 146 1617.8 73L1625 0L1920 0L1920 73C1920 146 1920 292 1920 437.8C1920 583.7 1920 729.3 1920 875.2C1920 1021 1920 1167 1920 1312.8C1920 1458.7 1920 1604.3 1920 1750.2C1920 1896 1920 2042 1920 2187.8C1920 2333.7 1920 2479.3 1920 2625.2C1920 2771 1920 2917 1920 3062.8C1920 3208.7 1920 3354.3 1920 3500.2C1920 3646 1920 3792 1920 3937.8C1920 4083.7 1920 4229.3 1920 4375.2C1920 4521 1920 4667 1920 4812.8C1920 4958.7 1920 5104.3 1920 5250.2C1920 5396 1920 5542 1920 5687.8C1920 5833.7 1920 5979.3 1920 6125.2C1920 6271 1920 6417 1920 6562.8C1920 6708.7 1920 6854.3 1920 6927.2L1920 7000Z" fill="#c20103"></path><path d="M1747 7000L1762.7 6927.2C1778.3 6854.3 1809.7 6708.7 1832.8 6562.8C1856 6417 1871 6271 1875 6125.2C1879 5979.3 1872 5833.7 1859 5687.8C1846 5542 1827 5396 1801.3 5250.2C1775.7 5104.3 1743.3 4958.7 1734 4812.8C1724.7 4667 1738.3 4521 1750.5 4375.2C1762.7 4229.3 1773.3 4083.7 1795 3937.8C1816.7 3792 1849.3 3646 1849.2 3500.2C1849 3354.3 1816 3208.7 1788.7 3062.8C1761.3 2917 1739.7 2771 1715.2 2625.2C1690.7 2479.3 1663.3 2333.7 1653.8 2187.8C1644.3 2042 1652.7 1896 1669.8 1750.2C1687 1604.3 1713 1458.7 1752.5 1312.8C1792 1167 1845 1021 1843.5 875.2C1842 729.3 1786 583.7 1773.8 437.8C1761.7 292 1793.3 146 1809.2 73L1825 0L1920 0L1920 73C1920 146 1920 292 1920 437.8C1920 583.7 1920 729.3 1920 875.2C1920 1021 1920 1167 1920 1312.8C1920 1458.7 1920 1604.3 1920 1750.2C1920 1896 1920 2042 1920 2187.8C1920 2333.7 1920 2479.3 1920 2625.2C1920 2771 1920 2917 1920 3062.8C1920 3208.7 1920 3354.3 1920 3500.2C1920 3646 1920 3792 1920 3937.8C1920 4083.7 1920 4229.3 1920 4375.2C1920 4521 1920 4667 1920 4812.8C1920 4958.7 1920 5104.3 1920 5250.2C1920 5396 1920 5542 1920 5687.8C1920 5833.7 1920 5979.3 1920 6125.2C1920 6271 1920 6417 1920 6562.8C1920 6708.7 1920 6854.3 1920 6927.2L1920 7000Z" fill="#d40000"></path></svg>