<svg id="visual" viewBox="0 0 1920 1080" width="1920" height="1080" xmlns="http://www.w3.org/2000/svg" xmlns:xlink="http://www.w3.org/1999/xlink" version="1.1"><rect x="0" y="0" width="1920" height="1080" fill="#000000"></rect><path d="M1124 1080L1097.7 1044C1071.3 1008 1018.7 936 1045.5 864C1072.3 792 1178.7 720 1208.7 648C1238.7 576 1192.3 504 1168 432C1143.7 360 1141.3 288 1115.2 216C1089 144 1039 72 1014 36L989 0L1920 0L1920 36C1920 72 1920 144 1920 216C1920 288 1920 360 1920 432C1920 504 1920 576 1920 648C1920 720 1920 792 1920 864C1920 936 1920 1008 1920 1044L1920 1080Z" fill="#000000"></path><path d="M1028 1080L1023.8 1044C1019.7 1008 1011.3 936 1045.7 864C1080 792 1157 720 1184.7 648C1212.3 576 1190.7 504 1172.7 432C1154.7 360 1140.3 288 1153.5 216C1166.7 144 1207.3 72 1227.7 36L1248 0L1920 0L1920 36C1920 72 1920 144 1920 216C1920 288 1920 360 1920 432C1920 504 1920 576 1920 648C1920 720 1920 792 1920 864C1920 936 1920 1008 1920 1044L1920 1080Z" fill="#540000"></path><path d="M1243 1080L1237.7 1044C1232.3 1008 1221.7 936 1220.7 864C1219.7 792 1228.3 720 1252.7 648C1277 576 1317 504 1288.3 432C1259.7 360 1162.3 288 1113.5 216C1064.7 144 1064.3 72 1064.2 36L1064 0L1920 0L1920 36C1920 72 1920 144 1920 216C1920 288 1920 360 1920 432C1920 504 1920 576 1920 648C1920 720 1920 792 1920 864C1920 936 1920 1008 1920 1044L1920 1080Z" fill="#630000"></path><path d="M1440 1080L1410.8 1044C1381.7 1008 1323.3 936 1300.2 864C1277 792 1289 720 1309.7 648C1330.3 576 1359.7 504 1385 432C1410.3 360 1431.7 288 1420.5 216C1409.3 144 1365.7 72 1343.8 36L1322 0L1920 0L1920 36C1920 72 1920 144 1920 216C1920 288 1920 360 1920 432C1920 504 1920 576 1920 648C1920 720 1920 792 1920 864C1920 936 1920 1008 1920 1044L1920 1080Z" fill="#730000"></path><path d="M1463 1080L1455 1044C1447 1008 1431 936 1425.8 864C1420.7 792 1426.3 720 1397.7 648C1369 576 1306 504 1287.3 432C1268.7 360 1294.3 288 1294.8 216C1295.3 144 1270.7 72 1258.3 36L1246 0L1920 0L1920 36C1920 72 1920 144 1920 216C1920 288 1920 360 1920 432C1920 504 1920 576 1920 648C1920 720 1920 792 1920 864C1920 936 1920 1008 1920 1044L1920 1080Z" fill="#850000"></path><path d="M1541 1080L1532.2 1044C1523.3 1008 1505.7 936 1504.7 864C1503.7 792 1519.3 720 1520.8 648C1522.3 576 1509.7 504 1476.8 432C1444 360 1391 288 1366.5 216C1342 144 1346 72 1348 36L1350 0L1920 0L1920 36C1920 72 1920 144 1920 216C1920 288 1920 360 1920 432C1920 504 1920 576 1920 648C1920 720 1920 792 1920 864C1920 936 1920 1008 1920 1044L1920 1080Z" fill="#970000"></path><path d="M1403 1080L1400.2 1044C1397.3 1008 1391.7 936 1416.7 864C1441.7 792 1497.3 720 1534.2 648C1571 576 1589 504 1593.2 432C1597.3 360 1587.7 288 1576 216C1564.3 144 1550.7 72 1543.8 36L1537 0L1920 0L1920 36C1920 72 1920 144 1920 216C1920 288 1920 360 1920 432C1920 504 1920 576 1920 648C1920 720 1920 792 1920 864C1920 936 1920 1008 1920 1044L1920 1080Z" fill="#a70000"></path><path d="M1515 1080L1515 1044C1515 1008 1515 936 1512.5 864C1510 792 1505 720 1514.8 648C1524.7 576 1549.3 504 1570.2 432C1591 360 1608 288 1605.8 216C1603.7 144 1582.3 72 1571.7 36L1561 0L1920 0L1920 36C1920 72 1920 144 1920 216C1920 288 1920 360 1920 432C1920 504 1920 576 1920 648C1920 720 1920 792 1920 864C1920 936 1920 1008 1920 1044L1920 1080Z" fill="#b60001"></path><path d="M1579 1080L1594 1044C1609 1008 1639 936 1659 864C1679 792 1689 720 1694.8 648C1700.7 576 1702.3 504 1692.3 432C1682.3 360 1660.7 288 1649.3 216C1638 144 1637 72 1636.5 36L1636 0L1920 0L1920 36C1920 72 1920 144 1920 216C1920 288 1920 360 1920 432C1920 504 1920 576 1920 648C1920 720 1920 792 1920 864C1920 936 1920 1008 1920 1044L1920 1080Z" fill="#c50001"></path><path d="M1721 1080L1726.2 1044C1731.3 1008 1741.7 936 1732.3 864C1723 792 1694 720 1675 648C1656 576 1647 504 1653.5 432C1660 360 1682 288 1689 216C1696 144 1688 72 1684 36L1680 0L1920 0L1920 36C1920 72 1920 144 1920 216C1920 288 1920 360 1920 432C1920 504 1920 576 1920 648C1920 720 1920 792 1920 864C1920 936 1920 1008 1920 1044L1920 1080Z" fill="#d50001"></path><path d="M1827 1080L1815.2 1044C1803.3 1008 1779.7 936 1771.2 864C1762.7 792 1769.3 720 1767 648C1764.7 576 1753.3 504 1752.7 432C1752 360 1762 288 1771.8 216C1781.7 144 1791.3 72 1796.2 36L1801 0L1920 0L1920 36C1920 72 1920 144 1920 216C1920 288 1920 360 1920 432C1920 504 1920 576 1920 648C1920 720 1920 792 1920 864C1920 936 1920 1008 1920 1044L1920 1080Z" fill="#e40000"></path><path d="M1782 1080L1797.8 1044C1813.7 1008 1845.3 936 1857.8 864C1870.3 792 1863.7 720 1848 648C1832.3 576 1807.7 504 1800.7 432C1793.7 360 1804.3 288 1808.8 216C1813.3 144 1811.7 72 1810.8 36L1810 0L1920 0L1920 36C1920 72 1920 144 1920 216C1920 288 1920 360 1920 432C1920 504 1920 576 1920 648C1920 720 1920 792 1920 864C1920 936 1920 1008 1920 1044L1920 1080Z" fill="#f40000"></path></svg>