<svg id="visual" viewBox="0 0 1920 6000" width="1920" height="6000" xmlns="http://www.w3.org/2000/svg" xmlns:xlink="http://www.w3.org/1999/xlink" version="1.1"><rect x="0" y="0" width="1920" height="6000" fill="#ffffff"></rect><path d="M1103 6000L1171.2 5923C1239.3 5846 1375.7 5692 1403.7 5538.2C1431.7 5384.3 1351.3 5230.7 1264.3 5076.8C1177.3 4923 1083.7 4769 1101.3 4615.2C1119 4461.3 1248 4307.7 1251.5 4153.8C1255 4000 1133 3846 1079.5 3692.2C1026 3538.3 1041 3384.7 1097.8 3230.8C1154.7 3077 1253.3 2923 1323.3 2769.2C1393.3 2615.3 1434.7 2461.7 1379.2 2307.8C1323.7 2154 1171.3 2000 1121.5 1846.2C1071.7 1692.3 1124.3 1538.7 1139.5 1384.8C1154.7 1231 1132.3 1077 1168.7 923.2C1205 769.3 1300 615.7 1282.5 461.8C1265 308 1135 154 1070 77L1005 0L1920 0L1920 77C1920 154 1920 308 1920 461.8C1920 615.7 1920 769.3 1920 923.2C1920 1077 1920 1231 1920 1384.8C1920 1538.7 1920 1692.3 1920 1846.2C1920 2000 1920 2154 1920 2307.8C1920 2461.7 1920 2615.3 1920 2769.2C1920 2923 1920 3077 1920 3230.8C1920 3384.7 1920 3538.3 1920 3692.2C1920 3846 1920 4000 1920 4153.8C1920 4307.7 1920 4461.3 1920 4615.2C1920 4769 1920 4923 1920 5076.8C1920 5230.7 1920 5384.3 1920 5538.2C1920 5692 1920 5846 1920 5923L1920 6000Z" fill="#ff9a3b"></path><path d="M1314 6000L1331 5923C1348 5846 1382 5692 1352.8 5538.2C1323.7 5384.3 1231.3 5230.7 1251.7 5076.8C1272 4923 1405 4769 1446.5 4615.2C1488 4461.3 1438 4307.7 1406 4153.8C1374 4000 1360 3846 1383.5 3692.2C1407 3538.3 1468 3384.7 1481.8 3230.8C1495.7 3077 1462.3 2923 1445.5 2769.2C1428.7 2615.3 1428.3 2461.7 1443 2307.8C1457.7 2154 1487.3 2000 1496.7 1846.2C1506 1692.3 1495 1538.7 1477.2 1384.8C1459.3 1231 1434.7 1077 1432.7 923.2C1430.7 769.3 1451.3 615.7 1466.2 461.8C1481 308 1490 154 1494.5 77L1499 0L1920 0L1920 77C1920 154 1920 308 1920 461.8C1920 615.7 1920 769.3 1920 923.2C1920 1077 1920 1231 1920 1384.8C1920 1538.7 1920 1692.3 1920 1846.2C1920 2000 1920 2154 1920 2307.8C1920 2461.7 1920 2615.3 1920 2769.2C1920 2923 1920 3077 1920 3230.8C1920 3384.7 1920 3538.3 1920 3692.2C1920 3846 1920 4000 1920 4153.8C1920 4307.7 1920 4461.3 1920 4615.2C1920 4769 1920 4923 1920 5076.8C1920 5230.7 1920 5384.3 1920 5538.2C1920 5692 1920 5846 1920 5923L1920 6000Z" fill="#ff9635"></path><path d="M1313 6000L1343.3 5923C1373.7 5846 1434.3 5692 1420.3 5538.2C1406.3 5384.3 1317.7 5230.7 1276.5 5076.8C1235.3 4923 1241.7 4769 1267.2 4615.2C1292.7 4461.3 1337.3 4307.7 1335.3 4153.8C1333.3 4000 1284.7 3846 1319.5 3692.2C1354.3 3538.3 1472.7 3384.7 1516.5 3230.8C1560.3 3077 1529.7 2923 1499.7 2769.2C1469.7 2615.3 1440.3 2461.7 1438.2 2307.8C1436 2154 1461 2000 1486.3 1846.2C1511.7 1692.3 1537.3 1538.7 1491.2 1384.8C1445 1231 1327 1077 1286.5 923.2C1246 769.3 1283 615.7 1305.3 461.8C1327.7 308 1335.3 154 1339.2 77L1343 0L1920 0L1920 77C1920 154 1920 308 1920 461.8C1920 615.7 1920 769.3 1920 923.2C1920 1077 1920 1231 1920 1384.8C1920 1538.7 1920 1692.3 1920 1846.2C1920 2000 1920 2154 1920 2307.8C1920 2461.7 1920 2615.3 1920 2769.2C1920 2923 1920 3077 1920 3230.8C1920 3384.7 1920 3538.3 1920 3692.2C1920 3846 1920 4000 1920 4153.8C1920 4307.7 1920 4461.3 1920 4615.2C1920 4769 1920 4923 1920 5076.8C1920 5230.7 1920 5384.3 1920 5538.2C1920 5692 1920 5846 1920 5923L1920 6000Z" fill="#ff932f"></path><path d="M1535 6000L1527.5 5923C1520 5846 1505 5692 1501.8 5538.2C1498.7 5384.3 1507.3 5230.7 1510.5 5076.8C1513.7 4923 1511.3 4769 1479.5 4615.2C1447.7 4461.3 1386.3 4307.7 1350.5 4153.8C1314.7 4000 1304.3 3846 1309.2 3692.2C1314 3538.3 1334 3384.7 1344.8 3230.8C1355.7 3077 1357.3 2923 1366 2769.2C1374.7 2615.3 1390.3 2461.7 1423 2307.8C1455.7 2154 1505.3 2000 1485.5 1846.2C1465.7 1692.3 1376.3 1538.7 1333.7 1384.8C1291 1231 1295 1077 1328.8 923.2C1362.7 769.3 1426.3 615.7 1432.8 461.8C1439.3 308 1388.7 154 1363.3 77L1338 0L1920 0L1920 77C1920 154 1920 308 1920 461.8C1920 615.7 1920 769.3 1920 923.2C1920 1077 1920 1231 1920 1384.8C1920 1538.7 1920 1692.3 1920 1846.2C1920 2000 1920 2154 1920 2307.8C1920 2461.7 1920 2615.3 1920 2769.2C1920 2923 1920 3077 1920 3230.8C1920 3384.7 1920 3538.3 1920 3692.2C1920 3846 1920 4000 1920 4153.8C1920 4307.7 1920 4461.3 1920 4615.2C1920 4769 1920 4923 1920 5076.8C1920 5230.7 1920 5384.3 1920 5538.2C1920 5692 1920 5846 1920 5923L1920 6000Z" fill="#ff8f29"></path><path d="M1447 6000L1490.2 5923C1533.3 5846 1619.7 5692 1627.3 5538.2C1635 5384.3 1564 5230.7 1565.3 5076.8C1566.7 4923 1640.3 4769 1670.2 4615.2C1700 4461.3 1686 4307.7 1684.3 4153.8C1682.7 4000 1693.3 3846 1659.3 3692.2C1625.3 3538.3 1546.7 3384.7 1535.7 3230.8C1524.7 3077 1581.3 2923 1620.7 2769.2C1660 2615.3 1682 2461.7 1660.8 2307.8C1639.7 2154 1575.3 2000 1543.8 1846.2C1512.3 1692.3 1513.7 1538.7 1540.3 1384.8C1567 1231 1619 1077 1636.3 923.2C1653.7 769.3 1636.3 615.7 1592.8 461.8C1549.3 308 1479.7 154 1444.8 77L1410 0L1920 0L1920 77C1920 154 1920 308 1920 461.8C1920 615.7 1920 769.3 1920 923.2C1920 1077 1920 1231 1920 1384.8C1920 1538.7 1920 1692.3 1920 1846.2C1920 2000 1920 2154 1920 2307.8C1920 2461.7 1920 2615.3 1920 2769.2C1920 2923 1920 3077 1920 3230.8C1920 3384.7 1920 3538.3 1920 3692.2C1920 3846 1920 4000 1920 4153.8C1920 4307.7 1920 4461.3 1920 4615.2C1920 4769 1920 4923 1920 5076.8C1920 5230.7 1920 5384.3 1920 5538.2C1920 5692 1920 5846 1920 5923L1920 6000Z" fill="#ff8b23"></path><path d="M1507 6000L1531.3 5923C1555.7 5846 1604.3 5692 1638.8 5538.2C1673.3 5384.3 1693.7 5230.7 1673 5076.8C1652.3 4923 1590.7 4769 1558.3 4615.2C1526 4461.3 1523 4307.7 1548.8 4153.8C1574.7 4000 1629.3 3846 1630.8 3692.2C1632.3 3538.3 1580.7 3384.7 1565 3230.8C1549.3 3077 1569.7 2923 1596.7 2769.2C1623.7 2615.3 1657.3 2461.7 1650.7 2307.8C1644 2154 1597 2000 1604.3 1846.2C1611.7 1692.3 1673.3 1538.7 1676.3 1384.8C1679.3 1231 1623.7 1077 1617.7 923.2C1611.7 769.3 1655.3 615.7 1688.8 461.8C1722.3 308 1745.7 154 1757.3 77L1769 0L1920 0L1920 77C1920 154 1920 308 1920 461.8C1920 615.7 1920 769.3 1920 923.2C1920 1077 1920 1231 1920 1384.8C1920 1538.7 1920 1692.3 1920 1846.2C1920 2000 1920 2154 1920 2307.8C1920 2461.7 1920 2615.3 1920 2769.2C1920 2923 1920 3077 1920 3230.8C1920 3384.7 1920 3538.3 1920 3692.2C1920 3846 1920 4000 1920 4153.8C1920 4307.7 1920 4461.3 1920 4615.2C1920 4769 1920 4923 1920 5076.8C1920 5230.7 1920 5384.3 1920 5538.2C1920 5692 1920 5846 1920 5923L1920 6000Z" fill="#ff881b"></path><path d="M1776 6000L1764.7 5923C1753.3 5846 1730.7 5692 1711 5538.2C1691.3 5384.3 1674.7 5230.7 1659.2 5076.8C1643.7 4923 1629.3 4769 1640.3 4615.2C1651.3 4461.3 1687.7 4307.7 1706.2 4153.8C1724.7 4000 1725.3 3846 1723.8 3692.2C1722.3 3538.3 1718.7 3384.7 1702.7 3230.8C1686.7 3077 1658.3 2923 1676.2 2769.2C1694 2615.3 1758 2461.7 1772.3 2307.8C1786.7 2154 1751.3 2000 1726.3 1846.2C1701.3 1692.3 1686.7 1538.7 1685.7 1384.8C1684.7 1231 1697.3 1077 1693.2 923.2C1689 769.3 1668 615.7 1664 461.8C1660 308 1673 154 1679.5 77L1686 0L1920 0L1920 77C1920 154 1920 308 1920 461.8C1920 615.7 1920 769.3 1920 923.2C1920 1077 1920 1231 1920 1384.8C1920 1538.7 1920 1692.3 1920 1846.2C1920 2000 1920 2154 1920 2307.8C1920 2461.7 1920 2615.3 1920 2769.2C1920 2923 1920 3077 1920 3230.8C1920 3384.7 1920 3538.3 1920 3692.2C1920 3846 1920 4000 1920 4153.8C1920 4307.7 1920 4461.3 1920 4615.2C1920 4769 1920 4923 1920 5076.8C1920 5230.7 1920 5384.3 1920 5538.2C1920 5692 1920 5846 1920 5923L1920 6000Z" fill="#ff8412"></path><path d="M1799 6000L1803.8 5923C1808.7 5846 1818.3 5692 1829 5538.2C1839.7 5384.3 1851.3 5230.7 1837.3 5076.8C1823.3 4923 1783.7 4769 1763.3 4615.2C1743 4461.3 1742 4307.7 1757.5 4153.8C1773 4000 1805 3846 1804.3 3692.2C1803.7 3538.3 1770.3 3384.7 1768.2 3230.8C1766 3077 1795 2923 1801 2769.2C1807 2615.3 1790 2461.7 1774.8 2307.8C1759.7 2154 1746.3 2000 1759.5 1846.2C1772.7 1692.3 1812.3 1538.7 1812.7 1384.8C1813 1231 1774 1077 1758.8 923.2C1743.7 769.3 1752.3 615.7 1755.8 461.8C1759.3 308 1757.7 154 1756.8 77L1756 0L1920 0L1920 77C1920 154 1920 308 1920 461.8C1920 615.7 1920 769.3 1920 923.2C1920 1077 1920 1231 1920 1384.8C1920 1538.7 1920 1692.3 1920 1846.2C1920 2000 1920 2154 1920 2307.8C1920 2461.7 1920 2615.3 1920 2769.2C1920 2923 1920 3077 1920 3230.8C1920 3384.7 1920 3538.3 1920 3692.2C1920 3846 1920 4000 1920 4153.8C1920 4307.7 1920 4461.3 1920 4615.2C1920 4769 1920 4923 1920 5076.8C1920 5230.7 1920 5384.3 1920 5538.2C1920 5692 1920 5846 1920 5923L1920 6000Z" fill="#ff8006"></path></svg>