<svg id="visual" viewBox="0 0 1920 1080" width="1920" height="1080" xmlns="http://www.w3.org/2000/svg" xmlns:xlink="http://www.w3.org/1999/xlink" version="1.1"><rect x="0" y="0" width="1920" height="1080" fill="#ffffff"></rect><defs><linearGradient id="grad1_0" x1="43.8%" y1="100%" x2="100%" y2="0%"><stop offset="14.444444444444446%" stop-color="#ffffff" stop-opacity="1"></stop><stop offset="85.55555555555554%" stop-color="#ffffff" stop-opacity="1"></stop></linearGradient></defs><defs><linearGradient id="grad2_0" x1="0%" y1="100%" x2="56.3%" y2="0%"><stop offset="14.444444444444446%" stop-color="#ffffff" stop-opacity="1"></stop><stop offset="85.55555555555554%" stop-color="#ffffff" stop-opacity="1"></stop></linearGradient></defs><g transform="translate(1920, 1080)"><path d="M-648 0C-635.6 -121.3 -623.3 -242.5 -561.2 -324C-499.1 -405.5 -387.3 -447.1 -285.5 -494.5C-183.7 -541.9 -91.8 -594.9 0 -648L0 0Z" fill="#ff8006"></path></g><g transform="translate(0, 0)"><path d="M648 0C606.9 98.8 565.9 197.6 517 298.5C468.1 399.4 411.5 502.6 324 561.2C236.5 619.8 118.3 633.9 0 648L0 0Z" fill="#ff8006"></path></g></svg>