<svg id="visual" viewBox="0 0 1920 1080" width="1920" height="1080" xmlns="http://www.w3.org/2000/svg" xmlns:xlink="http://www.w3.org/1999/xlink" version="1.1"><rect x="0" y="0" width="1920" height="1080" fill="#ffffff"></rect><defs><linearGradient id="grad1_0" x1="43.8%" y1="0%" x2="100%" y2="100%"><stop offset="14.444444444444446%" stop-color="#ffffff" stop-opacity="1"></stop><stop offset="85.55555555555554%" stop-color="#ffffff" stop-opacity="1"></stop></linearGradient></defs><defs><linearGradient id="grad2_0" x1="0%" y1="0%" x2="56.3%" y2="100%"><stop offset="14.444444444444446%" stop-color="#ffffff" stop-opacity="1"></stop><stop offset="85.55555555555554%" stop-color="#ffffff" stop-opacity="1"></stop></linearGradient></defs><g transform="translate(1920, 0)"><path d="M0 648C-94.7 639.1 -189.4 630.2 -236.1 570C-282.8 509.9 -281.4 398.6 -345.1 345.1C-408.7 291.6 -537.4 295.9 -598.7 248C-660 200.1 -654 100.1 -648 0L0 0Z" fill="#FF8006"></path></g><g transform="translate(0, 1080)"><path d="M0 -648C69.8 -608.6 139.5 -569.2 226.2 -546C312.8 -522.8 416.3 -515.8 458.2 -458.2C500.1 -400.7 480.3 -292.6 501.7 -207.8C523 -123 585.5 -61.5 648 0L0 0Z" fill="#FF8006"></path></g></svg>