<svg id="visual" viewBox="0 0 1920 1080" width="1920" height="1080" xmlns="http://www.w3.org/2000/svg" xmlns:xlink="http://www.w3.org/1999/xlink" version="1.1"><rect x="0" y="0" width="1920" height="1080" fill="#ffffff"></rect><path d="M0 730L24.7 644C49.3 558 98.7 386 147.8 343.3C197 300.7 246 387.3 295.2 436.5C344.3 485.7 393.7 497.3 443 494.2C492.3 491 541.7 473 590.8 509.2C640 545.3 689 635.7 738.2 654.3C787.3 673 836.7 620 886 594.8C935.3 569.7 984.7 572.3 1034 544.8C1083.3 517.3 1132.7 459.7 1181.8 411.7C1231 363.7 1280 325.3 1329.2 334.2C1378.3 343 1427.7 399 1477 452.3C1526.3 505.7 1575.7 556.3 1624.8 558.7C1674 561 1723 515 1772.2 469.5C1821.3 424 1870.7 379 1895.3 356.5L1920 334L1920 0L1895.3 0C1870.7 0 1821.3 0 1772.2 0C1723 0 1674 0 1624.8 0C1575.7 0 1526.3 0 1477 0C1427.7 0 1378.3 0 1329.2 0C1280 0 1231 0 1181.8 0C1132.7 0 1083.3 0 1034 0C984.7 0 935.3 0 886 0C836.7 0 787.3 0 738.2 0C689 0 640 0 590.8 0C541.7 0 492.3 0 443 0C393.7 0 344.3 0 295.2 0C246 0 197 0 147.8 0C98.7 0 49.3 0 24.7 0L0 0Z" fill="#ff8006" stroke-linecap="round" stroke-linejoin="miter"></path></svg>