<svg id="visual" viewBox="0 0 1920 1080" width="1920" height="1080" xmlns="http://www.w3.org/2000/svg" xmlns:xlink="http://www.w3.org/1999/xlink" version="1.1"><rect x="0" y="0" width="1920" height="1080" fill="#ffffff"></rect><defs><linearGradient id="grad1_0" x1="43.8%" y1="0%" x2="100%" y2="100%"><stop offset="14.444444444444446%" stop-color="#ffffff" stop-opacity="1"></stop><stop offset="85.55555555555554%" stop-color="#ffffff" stop-opacity="1"></stop></linearGradient></defs><defs><linearGradient id="grad2_0" x1="0%" y1="0%" x2="56.3%" y2="100%"><stop offset="14.444444444444446%" stop-color="#ffffff" stop-opacity="1"></stop><stop offset="85.55555555555554%" stop-color="#ffffff" stop-opacity="1"></stop></linearGradient></defs><g transform="translate(1920, 0)"><path d="M0 648C-82 577.8 -164 507.7 -267 462.5C-370 417.2 -494.2 396.9 -561.2 324C-628.2 251.1 -638.1 125.5 -648 0L0 0Z" fill="#ff8006"></path></g><g transform="translate(0, 1080)"><path d="M0 -648C83.8 -581.1 167.7 -514.2 270.5 -468.5C373.3 -422.9 495.1 -398.5 561.2 -324C627.3 -249.5 637.6 -124.7 648 0L0 0Z" fill="#ff8006"></path></g></svg>