<svg id="visual" viewBox="0 0 1920 5000" width="1920" height="5000" xmlns="http://www.w3.org/2000/svg" xmlns:xlink="http://www.w3.org/1999/xlink" version="1.1"><rect x="0" y="0" width="1920" height="5000" fill="#060606"></rect><path d="M660 5000L675.3 4722.2C690.7 4444.3 721.3 3888.7 824.3 3333.2C927.3 2777.7 1102.7 2222.3 1077 1666.8C1051.3 1111.3 824.7 555.7 711.3 277.8L598 0L1920 0L1920 277.8C1920 555.7 1920 1111.3 1920 1666.8C1920 2222.3 1920 2777.7 1920 3333.2C1920 3888.7 1920 4444.3 1920 4722.2L1920 5000Z" fill="#c71e12"></path><path d="M1204 5000L1191.8 4722.2C1179.7 4444.3 1155.3 3888.7 1134.2 3333.2C1113 2777.7 1095 2222.3 1147.2 1666.8C1199.3 1111.3 1321.7 555.7 1382.8 277.8L1444 0L1920 0L1920 277.8C1920 555.7 1920 1111.3 1920 1666.8C1920 2222.3 1920 2777.7 1920 3333.2C1920 3888.7 1920 4444.3 1920 4722.2L1920 5000Z" fill="#c51a0f"></path><path d="M1077 5000L1123.2 4722.2C1169.3 4444.3 1261.7 3888.7 1268.5 3333.2C1275.3 2777.7 1196.7 2222.3 1170.7 1666.8C1144.7 1111.3 1171.3 555.7 1184.7 277.8L1198 0L1920 0L1920 277.8C1920 555.7 1920 1111.3 1920 1666.8C1920 2222.3 1920 2777.7 1920 3333.2C1920 3888.7 1920 4444.3 1920 4722.2L1920 5000Z" fill="#c3160c"></path><path d="M1271 5000L1260.5 4722.2C1250 4444.3 1229 3888.7 1275.7 3333.2C1322.3 2777.7 1436.7 2222.3 1480.8 1666.8C1525 1111.3 1499 555.7 1486 277.8L1473 0L1920 0L1920 277.8C1920 555.7 1920 1111.3 1920 1666.8C1920 2222.3 1920 2777.7 1920 3333.2C1920 3888.7 1920 4444.3 1920 4722.2L1920 5000Z" fill="#c11209"></path><path d="M1302 5000L1374.8 4722.2C1447.7 4444.3 1593.3 3888.7 1587.2 3333.2C1581 2777.7 1423 2222.3 1384.5 1666.8C1346 1111.3 1427 555.7 1467.5 277.8L1508 0L1920 0L1920 277.8C1920 555.7 1920 1111.3 1920 1666.8C1920 2222.3 1920 2777.7 1920 3333.2C1920 3888.7 1920 4444.3 1920 4722.2L1920 5000Z" fill="#bf0d06"></path><path d="M1599 5000L1587.5 4722.2C1576 4444.3 1553 3888.7 1523.3 3333.2C1493.7 2777.7 1457.3 2222.3 1495.5 1666.8C1533.7 1111.3 1646.3 555.7 1702.7 277.8L1759 0L1920 0L1920 277.8C1920 555.7 1920 1111.3 1920 1666.8C1920 2222.3 1920 2777.7 1920 3333.2C1920 3888.7 1920 4444.3 1920 4722.2L1920 5000Z" fill="#bd0603"></path><path d="M1775 5000L1783.5 4722.2C1792 4444.3 1809 3888.7 1795 3333.2C1781 2777.7 1736 2222.3 1718 1666.8C1700 1111.3 1709 555.7 1713.5 277.8L1718 0L1920 0L1920 277.8C1920 555.7 1920 1111.3 1920 1666.8C1920 2222.3 1920 2777.7 1920 3333.2C1920 3888.7 1920 4444.3 1920 4722.2L1920 5000Z" fill="#bb0000"></path></svg>